<svg width="183" height="43" viewBox="0 0 183 43" fill="none" xmlns="http://www.w3.org/2000/svg">
<path d="M13.5528 5.33624C12.4414 5.32315 11.3344 5.47721 10.2699 5.79314C9.70093 5.96291 9.15401 6.19784 8.64024 6.49314C7.68877 7.01871 6.84392 7.71382 6.14839 8.54335C5.34861 9.47301 4.79657 10.5855 4.54246 11.7798C4.36956 12.6642 4.34753 13.571 4.47728 14.4626C4.64674 15.6631 5.11283 16.8038 5.83432 17.7839C6.57292 18.8056 7.52856 19.6553 8.63432 20.2735C9.85039 20.9822 11.2559 21.308 12.6639 21.2078C13.8978 21.1263 15.0947 20.758 16.1573 20.1329C17.1804 19.5466 18.0701 18.7579 18.7706 17.8162C19.5097 16.8417 20.0033 15.7071 20.2106 14.5065C20.3173 13.83 20.3943 13.1505 20.4743 12.4563C20.4951 12.2952 20.4536 12.1429 20.4743 11.9731C20.5188 11.727 20.6491 11.7212 20.821 11.727C21.2151 11.7446 21.6091 11.7739 22.0062 11.7856C22.8239 11.812 23.6447 11.8383 24.4625 11.8471C24.6906 11.8471 24.7884 11.9086 24.7765 12.14C24.7325 13.1151 24.6336 14.0871 24.4802 15.0513C24.2827 16.2693 23.8885 17.4481 23.3128 18.5425C22.64 19.7922 21.7653 20.925 20.7232 21.8961C19.9654 22.6351 19.1266 23.2884 18.2225 23.8438C17.2734 24.4093 16.2519 24.8466 15.1854 25.1442C14.1777 25.4172 13.1369 25.5522 12.0921 25.5454C10.7897 25.5432 9.49784 25.3142 8.2758 24.8689C7.26642 24.4849 6.3098 23.9772 5.42839 23.3576C4.89838 23.014 4.40235 22.6217 3.94691 22.186C3.09219 21.381 2.33727 20.4784 1.69802 19.4973C1.06055 18.4675 0.588753 17.346 0.299501 16.1731C0.0799805 15.2949 -0.0196692 14.3916 0.00320498 13.4873C0.0504357 12.085 0.329688 10.6999 0.829872 9.38687C1.42055 7.79334 2.33629 6.33684 3.52024 5.10779C5.18492 3.37747 7.3032 2.13837 9.63876 1.52871C10.3749 1.33642 11.1263 1.20611 11.8847 1.13917C12.6314 1.07766 13.3662 1.10695 14.1217 1.10109C14.2699 1.10109 14.3499 1.14795 14.3262 1.30025C14.2551 1.80988 14.2906 2.32243 14.2521 2.83205C14.2195 3.28603 14.2195 3.74 14.1869 4.19398C14.1662 4.48686 14.1514 4.77975 14.1573 5.07264C14.1573 5.30695 14.0654 5.32452 13.8847 5.30695C13.7632 5.31574 13.6565 5.33624 13.5528 5.33624Z" fill="white"/>
<path d="M24.1959 21.1142C25.3072 21.1258 26.414 20.9718 27.4789 20.6573C28.0479 20.4865 28.5948 20.2506 29.1085 19.9544C30.0608 19.43 30.9058 18.7347 31.6004 17.9042C32.4041 16.9692 32.9564 15.8491 33.2063 14.6473C33.3816 13.7632 33.4047 12.8561 33.2744 11.9644C33.1053 10.7528 32.6327 9.6021 31.8996 8.61674C31.1405 7.58286 30.1641 6.72358 29.0374 6.09792C28.1278 5.59159 27.1158 5.29147 26.0744 5.21925C25.2381 5.16341 24.3983 5.2496 23.5915 5.47407C22.4011 5.81477 21.2975 6.40136 20.3536 7.19506C19.4097 7.98876 18.647 8.97148 18.1159 10.0783C17.744 10.8736 17.5154 11.727 17.4404 12.6C17.39 13.0452 17.3396 13.4787 17.2952 13.9356C17.3039 14.1063 17.3039 14.2774 17.2952 14.4481C17.2478 14.6912 17.1204 14.7 16.9544 14.6941C16.5574 14.6941 16.1633 14.6473 15.7693 14.6356C14.9604 14.6092 14.1515 14.5829 13.3426 14.5741C13.0937 14.5741 12.9781 14.5243 12.9959 14.2431C13.0438 13.1461 13.1706 12.0538 13.3752 10.9745C13.6669 9.51134 14.2446 8.11851 15.0759 6.87407C15.8005 5.81045 16.6621 4.8446 17.6389 4.00084C18.2171 3.48242 18.8408 3.01586 19.5026 2.6067C20.4513 2.02136 21.48 1.57357 22.5574 1.27699C23.6043 0.987167 24.6881 0.848079 25.7752 0.864023C27.043 0.874815 28.2996 1.09967 29.4907 1.52888C30.5009 1.91112 31.4578 2.41897 32.3381 3.04017C32.8694 3.39302 33.3655 3.79512 33.8196 4.24101C34.6643 5.04137 35.4111 5.93689 36.0448 6.90921C36.6847 7.93992 37.1566 9.06369 37.4433 10.2393C37.6601 11.117 37.7597 12.019 37.7396 12.9222C37.6916 14.3161 37.4185 15.6934 36.9307 17.0021C36.5748 17.9489 36.1116 18.8529 35.55 19.6967C34.9878 20.5654 34.2874 21.3388 33.4759 21.987C33.4492 22.0051 33.4244 22.0257 33.4018 22.0485C32.6106 22.7895 31.7118 23.4094 30.7352 23.8879C29.8493 24.3475 28.91 24.6986 27.9381 24.9335C27.3448 25.0891 26.7407 25.2017 26.1307 25.2703C25.3783 25.3586 24.6187 25.3694 23.8641 25.3025C23.7827 25.3008 23.7013 25.3066 23.6211 25.3201C23.4848 25.3201 23.4255 25.2557 23.4433 25.1239C23.5204 24.6172 23.4789 24.1017 23.5174 23.5921C23.5767 22.8511 23.5648 22.1101 23.6093 21.369C23.627 21.0762 23.7455 21.0762 23.947 21.1025C24.0297 21.1106 24.1128 21.1145 24.1959 21.1142Z" fill="white"/>
<path d="M47.4785 2.0708H52.0741C54.3378 2.0708 57.5467 2.30511 60.3852 4.6775C62.4592 6.3821 64.237 9.22017 64.237 13.2269C64.237 17.9131 61.9081 20.4085 60.2844 21.7792C58.2104 23.516 56.0622 24.3507 52.0385 24.3507H47.4785V2.0708ZM49.9793 22.0135H52.1748C53.9674 22.0135 56.4326 21.8114 58.6281 20.0101C60.32 18.6072 61.6711 16.4018 61.6711 13.2269C61.6711 7.88461 57.8844 4.41097 52.1748 4.41097H49.9793V22.0135Z" fill="white"/>
<path d="M80.6612 20.8095C80.2211 21.648 79.6377 22.405 78.9368 23.0472C77.6556 24.175 75.9913 24.7837 74.276 24.7518C70.8953 24.7518 67.3486 22.6489 67.3486 17.5028C67.3486 13.3614 69.9146 10.1543 74.1397 10.1543C76.8775 10.1543 78.599 11.4899 79.4434 12.6936C80.2879 13.8974 80.8301 16.0677 80.762 17.9041H69.8494C69.882 20.7773 71.876 22.6137 74.3086 22.6137C75.3579 22.6413 76.3805 22.2846 77.1797 21.612C77.7993 21.0899 78.2959 20.4401 78.6345 19.7083L80.6612 20.8095ZM78.2612 15.9007C77.8553 13.7305 76.1871 12.2924 74.1397 12.2924C72.0923 12.2924 70.3797 13.83 70.0183 15.9007H78.2612Z" fill="white"/>
<path d="M95.2242 10.488H97.6567V24.3504H95.2242V22.4144C94.6665 23.1495 93.9417 23.7446 93.1084 24.1516C92.2751 24.5586 91.3566 24.7662 90.4271 24.7575C86.8716 24.7575 83.6123 22.2855 83.6123 17.4089C83.6123 12.632 86.8567 10.16 90.4271 10.16C91.3549 10.1371 92.2747 10.3345 93.1093 10.7356C93.944 11.1366 94.6692 11.7297 95.2242 12.465V10.488ZM86.1012 17.4031C86.1012 20.3759 87.7901 22.6135 90.6967 22.6135C93.6597 22.6135 95.3604 20.1767 95.3604 17.4353C95.3604 13.8621 92.8597 12.2922 90.6967 12.2922C88.2967 12.2922 86.1012 14.029 86.1012 17.4031Z" fill="white"/>
<path d="M104.685 0V24.3506H102.252V0H104.685Z" fill="white"/>
<path d="M127.123 6.98238C126.264 6.13824 125.271 5.43876 124.184 4.91167C122.965 4.35279 121.64 4.05344 120.297 4.03301C115.094 4.03301 111.242 8.17443 111.242 13.3205C111.242 19.3656 116.208 22.4 120.329 22.4C121.789 22.3812 123.225 22.0262 124.522 21.3631C125.483 20.8781 126.361 20.2465 127.123 19.4916V22.5669C125.141 23.9697 122.767 24.7282 120.329 24.7372C113.639 24.7372 108.673 19.7259 108.673 13.2795C108.673 6.63384 113.71 1.68991 120.465 1.68991C122.873 1.658 125.221 2.43564 127.123 3.89535V6.98238Z" fill="white"/>
<path d="M132.326 3.54102C132.667 3.54102 133 3.64099 133.284 3.82829C133.568 4.0156 133.789 4.28182 133.919 4.5933C134.05 4.90477 134.084 5.24751 134.017 5.57817C133.951 5.90883 133.787 6.21256 133.545 6.45095C133.304 6.68935 132.997 6.85169 132.662 6.91747C132.328 6.98324 131.981 6.94948 131.666 6.82047C131.351 6.69145 131.082 6.47296 130.892 6.19264C130.703 5.91232 130.602 5.58276 130.602 5.24562C130.604 4.79424 130.786 4.36201 131.109 4.04283C131.432 3.72366 131.869 3.54332 132.326 3.54102ZM133.544 10.4883V24.3506H131.12V10.4883H133.544Z" fill="white"/>
<path d="M138.139 10.4882H140.572V11.9936C140.809 11.6246 141.855 10.1543 143.748 10.1543C144.503 10.1841 145.241 10.3781 145.911 10.7225L144.75 12.8928C144.335 12.5989 143.84 12.4365 143.33 12.4271C142.956 12.4101 142.584 12.4808 142.243 12.6335C141.902 12.7863 141.602 13.0166 141.369 13.3058C140.966 13.8417 140.56 14.7702 140.56 17.0489V24.371H138.127L138.139 10.4882Z" fill="white"/>
<path d="M158.311 14.3632C157.781 13.7167 157.111 13.1954 156.351 12.8372C155.591 12.479 154.759 12.2929 153.917 12.2924C151.316 12.2924 148.951 14.0966 148.951 17.4707C148.951 20.8447 151.384 22.6167 153.885 22.6167C154.754 22.6017 155.609 22.3998 156.391 22.025C157.172 21.6502 157.862 21.1115 158.412 20.4464V23.3196C157.12 24.2577 155.556 24.7608 153.953 24.7548C149.594 24.7548 146.451 21.6824 146.451 17.5058C146.451 13.2648 149.627 10.1573 153.953 10.1573C155.511 10.1383 157.035 10.6034 158.311 11.487V14.3632Z" fill="white"/>
<path d="M164.563 0V24.3506H162.131V0H164.563Z" fill="white"/>
<path d="M181.594 20.8095C181.153 21.6473 180.57 22.4041 179.87 23.0472C178.588 24.1757 176.923 24.7845 175.206 24.7518C171.828 24.7518 168.279 22.6489 168.279 17.5028C168.279 13.3614 170.848 10.1543 175.07 10.1543C177.808 10.1543 179.532 11.4899 180.377 12.6936C181.221 13.8974 181.763 16.0677 181.695 17.9041H170.78C170.812 20.7773 172.806 22.6137 175.242 22.6137C176.291 22.6402 177.313 22.2836 178.113 21.612C178.732 21.0906 179.228 20.4406 179.565 19.7083L181.594 20.8095ZM179.194 15.9007C178.788 13.7304 177.12 12.2924 175.07 12.2924C173.02 12.2924 171.322 13.83 170.948 15.9007H179.194Z" fill="white"/>
<path d="M2.38574 41H1.56885V36.7036H0.0991211V36.0029H3.85547V36.7036H2.38574V41ZM10.3212 41H7.49451V36.0029H10.3212V36.6934H8.31141V38.0537H10.1947V38.7373H8.31141V40.3062H10.3212V41ZM16.4006 36.6318C15.9312 36.6318 15.5621 36.7982 15.2932 37.1309C15.0243 37.4635 14.8899 37.9227 14.8899 38.5083C14.8899 39.1213 15.0186 39.585 15.2761 39.8994C15.5359 40.2139 15.9107 40.3711 16.4006 40.3711C16.6126 40.3711 16.8176 40.3506 17.0159 40.3096C17.2141 40.2663 17.4203 40.2116 17.6345 40.1455V40.8462C17.2426 40.9943 16.7983 41.0684 16.3015 41.0684C15.5701 41.0684 15.0084 40.8473 14.6165 40.4053C14.2245 39.9609 14.0286 39.3263 14.0286 38.5015C14.0286 37.9819 14.1231 37.5273 14.3123 37.1377C14.5037 36.748 14.7794 36.4495 15.1394 36.2422C15.4994 36.0348 15.9221 35.9312 16.4075 35.9312C16.9179 35.9312 17.3896 36.0382 17.8225 36.2524L17.5286 36.9326C17.36 36.8529 17.1811 36.7834 16.992 36.7241C16.8051 36.6626 16.608 36.6318 16.4006 36.6318ZM25.5221 41H24.7018V38.7476H22.3981V41H21.5812V36.0029H22.3981V38.0469H24.7018V36.0029H25.5221V41ZM29.2945 39.4653V38.7817H31.0513V39.4653H29.2945ZM37.6605 41H34.8339V36.0029H37.6605V36.6934H35.6508V38.0537H37.5341V38.7373H35.6508V40.3062H37.6605V41ZM45.7771 41H44.7757L42.3181 37.0181H42.2908L42.3079 37.2402C42.3398 37.6641 42.3557 38.0514 42.3557 38.4023V41H41.614V36.0029H42.6053L45.0559 39.9644H45.0764C45.0719 39.9119 45.0628 39.7217 45.0491 39.3936C45.0354 39.0632 45.0286 38.8057 45.0286 38.6211V36.0029H45.7771V41ZM53.0666 41L52.5675 39.6123H50.6569L50.1681 41H49.3068L51.1764 35.9824H52.0651L53.9347 41H53.0666ZM52.3522 38.9082L51.8839 37.5479C51.8498 37.4567 51.8019 37.3132 51.7404 37.1172C51.6811 36.9212 51.6401 36.7777 51.6173 36.6865C51.5558 36.9668 51.4658 37.2733 51.3473 37.606L50.8962 38.9082H52.3522ZM57.4644 36.0029H58.9478C59.6359 36.0029 60.1327 36.1032 60.438 36.3037C60.7456 36.5042 60.8995 36.821 60.8995 37.2539C60.8995 37.5456 60.8243 37.7882 60.6739 37.9819C60.5235 38.1756 60.307 38.2975 60.0245 38.3477V38.3818C60.3754 38.4479 60.6329 38.5789 60.7969 38.7749C60.9633 38.9686 61.0464 39.2318 61.0464 39.5645C61.0464 40.0133 60.8892 40.3654 60.5747 40.6206C60.2626 40.8735 59.8273 41 59.2691 41H57.4644V36.0029ZM58.2813 38.0674H59.0674C59.4092 38.0674 59.6587 38.0138 59.816 37.9067C59.9732 37.7974 60.0518 37.6128 60.0518 37.353C60.0518 37.1183 59.9663 36.9486 59.7954 36.8438C59.6268 36.7389 59.3579 36.6865 58.9888 36.6865H58.2813V38.0674ZM58.2813 38.7305V40.313H59.1495C59.4912 40.313 59.7487 40.248 59.9219 40.1182C60.0974 39.986 60.1851 39.7786 60.1851 39.4961C60.1851 39.2363 60.0962 39.0438 59.9185 38.9185C59.7408 38.7931 59.4707 38.7305 59.1084 38.7305H58.2813ZM64.9555 41V36.0029H65.7724V40.2993H67.8881V41H64.9555ZM74.4461 41H71.6194V36.0029H74.4461V36.6934H72.4363V38.0537H74.3196V38.7373H72.4363V40.3062H74.4461V41ZM82.4636 38.4536C82.4636 39.2785 82.2346 39.9097 81.7765 40.3472C81.3185 40.7824 80.6589 41 79.7975 41H78.3996V36.0029H79.9445C80.7398 36.0029 81.3584 36.2171 81.8005 36.6455C82.2425 37.0739 82.4636 37.6766 82.4636 38.4536ZM81.6022 38.481C81.6022 37.2847 81.0428 36.6865 79.924 36.6865H79.2165V40.313H79.7975C81.0007 40.313 81.6022 39.7023 81.6022 38.481ZM93.2587 41L91.8095 36.8267H91.7822C91.8209 37.4465 91.8403 38.0275 91.8403 38.5698V41H91.0986V36.0029H92.2504L93.6381 39.978H93.6586L95.0873 36.0029H96.2426V41H95.4565V38.5288C95.4565 38.2804 95.4622 37.9569 95.4736 37.5581C95.4872 37.1593 95.4986 36.9178 95.5078 36.8335H95.4804L93.9799 41H93.2587ZM101.31 37.0796C101.31 37.2231 101.348 37.3587 101.423 37.4863C101.501 37.6139 101.608 37.7495 101.744 37.8931C102.002 37.7472 102.182 37.6117 102.284 37.4863C102.389 37.3587 102.442 37.2163 102.442 37.0591C102.442 36.911 102.392 36.7925 102.291 36.7036C102.193 36.6147 102.062 36.5703 101.898 36.5703C101.718 36.5703 101.575 36.617 101.468 36.7104C101.363 36.8016 101.31 36.9246 101.31 37.0796ZM101.82 40.3779C102.237 40.3779 102.593 40.256 102.889 40.0122L101.58 38.7236C101.339 38.8786 101.173 39.0244 101.081 39.1611C100.99 39.2956 100.945 39.4494 100.945 39.6226C100.945 39.8459 101.023 40.0282 101.18 40.1694C101.34 40.3084 101.553 40.3779 101.82 40.3779ZM100.097 39.6772C100.097 39.3787 100.17 39.119 100.316 38.8979C100.462 38.6746 100.725 38.4536 101.105 38.2349C100.889 37.9819 100.741 37.7689 100.661 37.5957C100.583 37.4202 100.545 37.2391 100.545 37.0522C100.545 36.7059 100.668 36.4325 100.914 36.2319C101.162 36.0314 101.495 35.9312 101.912 35.9312C102.315 35.9312 102.632 36.0291 102.862 36.2251C103.092 36.4188 103.207 36.6808 103.207 37.0112C103.207 37.271 103.13 37.5068 102.975 37.7188C102.822 37.9307 102.566 38.1426 102.206 38.3545L103.388 39.4961C103.573 39.2523 103.727 38.8945 103.85 38.4229H104.677C104.518 39.07 104.262 39.5975 103.911 40.0054L104.94 41H103.905L103.395 40.5044C103.163 40.6912 102.915 40.8325 102.65 40.9282C102.388 41.0216 102.098 41.0684 101.779 41.0684C101.255 41.0684 100.843 40.9442 100.545 40.6958C100.246 40.4474 100.097 40.1079 100.097 39.6772ZM111.58 41L111.081 39.6123H109.171L108.682 41H107.821L109.69 35.9824H110.579L112.448 41H111.58ZM110.866 38.9082L110.398 37.5479C110.363 37.4567 110.316 37.3132 110.254 37.1172C110.195 36.9212 110.154 36.7777 110.131 36.6865C110.07 36.9668 109.98 37.2733 109.861 37.606L109.41 38.9082H110.866ZM123.548 39.6431C123.548 40.0874 123.387 40.436 123.066 40.689C122.745 40.9419 122.301 41.0684 121.736 41.0684C121.171 41.0684 120.709 40.9806 120.349 40.8052V40.0327C120.576 40.1398 120.818 40.2241 121.073 40.2856C121.331 40.3472 121.57 40.3779 121.791 40.3779C122.115 40.3779 122.353 40.3164 122.505 40.1934C122.66 40.0703 122.738 39.9051 122.738 39.6978C122.738 39.5109 122.667 39.3525 122.526 39.2227C122.385 39.0928 122.093 38.939 121.651 38.7612C121.195 38.5767 120.874 38.3659 120.687 38.1289C120.5 37.8919 120.407 37.6071 120.407 37.2744C120.407 36.8574 120.555 36.5293 120.851 36.29C121.147 36.0508 121.545 35.9312 122.044 35.9312C122.522 35.9312 122.999 36.036 123.473 36.2456L123.213 36.9121C122.769 36.7253 122.372 36.6318 122.023 36.6318C121.759 36.6318 121.559 36.6899 121.422 36.8062C121.285 36.9201 121.217 37.0716 121.217 37.2607C121.217 37.3906 121.244 37.5023 121.299 37.5957C121.353 37.6868 121.443 37.7734 121.569 37.8555C121.694 37.9375 121.92 38.0457 122.246 38.1802C122.612 38.3328 122.881 38.4753 123.052 38.6074C123.223 38.7396 123.348 38.8888 123.428 39.0552C123.508 39.2215 123.548 39.4175 123.548 39.6431ZM131.822 38.4946C131.822 39.3081 131.618 39.9404 131.21 40.3916C130.804 40.8428 130.229 41.0684 129.484 41.0684C128.729 41.0684 128.15 40.8451 127.744 40.3984C127.341 39.9495 127.139 39.3127 127.139 38.4878C127.139 37.6629 127.342 37.0295 127.747 36.5874C128.155 36.1453 128.736 35.9243 129.491 35.9243C130.233 35.9243 130.808 36.1488 131.213 36.5977C131.619 37.0465 131.822 37.6789 131.822 38.4946ZM128.007 38.4946C128.007 39.1099 128.131 39.577 128.38 39.896C128.628 40.2127 128.996 40.3711 129.484 40.3711C129.969 40.3711 130.335 40.2139 130.581 39.8994C130.829 39.585 130.953 39.1167 130.953 38.4946C130.953 37.8817 130.83 37.4168 130.584 37.1001C130.34 36.7834 129.976 36.625 129.491 36.625C129.001 36.625 128.63 36.7834 128.38 37.1001C128.131 37.4168 128.007 37.8817 128.007 38.4946ZM135.765 41V36.0029H136.582V40.2993H138.697V41H135.765ZM146.346 36.0029V39.2363C146.346 39.6055 146.266 39.929 146.107 40.207C145.949 40.4827 145.72 40.6958 145.42 40.8462C145.121 40.9943 144.763 41.0684 144.346 41.0684C143.726 41.0684 143.245 40.9043 142.9 40.5762C142.556 40.248 142.384 39.7969 142.384 39.2227V36.0029H143.205V39.1646C143.205 39.577 143.3 39.8812 143.492 40.0771C143.683 40.2731 143.977 40.3711 144.374 40.3711C145.144 40.3711 145.529 39.9666 145.529 39.1577V36.0029H146.346ZM152.22 41H151.403V36.7036H149.934V36.0029H153.69V36.7036H152.22V41ZM157.329 41V36.0029H158.146V41H157.329ZM166.775 38.4946C166.775 39.3081 166.571 39.9404 166.163 40.3916C165.758 40.8428 165.182 41.0684 164.437 41.0684C163.683 41.0684 163.103 40.8451 162.697 40.3984C162.294 39.9495 162.093 39.3127 162.093 38.4878C162.093 37.6629 162.295 37.0295 162.701 36.5874C163.109 36.1453 163.69 35.9243 164.444 35.9243C165.187 35.9243 165.761 36.1488 166.167 36.5977C166.572 37.0465 166.775 37.6789 166.775 38.4946ZM162.961 38.4946C162.961 39.1099 163.085 39.577 163.333 39.896C163.582 40.2127 163.95 40.3711 164.437 40.3711C164.923 40.3711 165.288 40.2139 165.534 39.8994C165.783 39.585 165.907 39.1167 165.907 38.4946C165.907 37.8817 165.784 37.4168 165.538 37.1001C165.294 36.7834 164.929 36.625 164.444 36.625C163.954 36.625 163.584 36.7834 163.333 37.1001C163.085 37.4168 162.961 37.8817 162.961 38.4946ZM174.881 41H173.88L171.422 37.0181H171.395L171.412 37.2402C171.444 37.6641 171.46 38.0514 171.46 38.4023V41H170.718V36.0029H171.71L174.16 39.9644H174.181C174.176 39.9119 174.167 39.7217 174.153 39.3936C174.14 39.0632 174.133 38.8057 174.133 38.6211V36.0029H174.881V41ZM181.952 39.6431C181.952 40.0874 181.792 40.436 181.47 40.689C181.149 40.9419 180.706 41.0684 180.141 41.0684C179.576 41.0684 179.113 40.9806 178.753 40.8052V40.0327C178.981 40.1398 179.222 40.2241 179.478 40.2856C179.735 40.3472 179.974 40.3779 180.195 40.3779C180.519 40.3779 180.757 40.3164 180.91 40.1934C181.065 40.0703 181.142 39.9051 181.142 39.6978C181.142 39.5109 181.071 39.3525 180.93 39.2227C180.789 39.0928 180.497 38.939 180.055 38.7612C179.599 38.5767 179.278 38.3659 179.091 38.1289C178.904 37.8919 178.811 37.6071 178.811 37.2744C178.811 36.8574 178.959 36.5293 179.255 36.29C179.552 36.0508 179.949 35.9312 180.448 35.9312C180.927 35.9312 181.403 36.036 181.877 36.2456L181.617 36.9121C181.173 36.7253 180.776 36.6318 180.428 36.6318C180.163 36.6318 179.963 36.6899 179.826 36.8062C179.689 36.9201 179.621 37.0716 179.621 37.2607C179.621 37.3906 179.648 37.5023 179.703 37.5957C179.758 37.6868 179.848 37.7734 179.973 37.8555C180.098 37.9375 180.324 38.0457 180.65 38.1802C181.017 38.3328 181.286 38.4753 181.457 38.6074C181.627 38.7396 181.753 38.8888 181.833 39.0552C181.912 39.2215 181.952 39.4175 181.952 39.6431Z" fill="white"/>
</svg>
